<svg width="191" height="123" viewBox="0 0 191 123" fill="none" xmlns="http://www.w3.org/2000/svg">
<path d="M71.0947 109.508C78.8335 113.508 87.6175 115.767 96.9291 115.767C128.056 115.767 153.288 90.522 153.288 59.3836C153.288 28.2451 128.056 3.00006 96.9291 3.00006C65.8017 3.00006 40.5703 28.2451 40.5703 59.3836C40.5703 73.0809 45.4525 85.6378 53.5712 95.4072L48.5475 111.893L46.8674 117.406L52.347 115.619L71.0947 109.508Z" stroke="#CC0200" stroke-width="6"/>
<path d="M87.906 27.0056C90.1096 30.6215 86.0397 37.2508 78.9676 41.5647C71.8956 45.8786 64.1412 46.4621 61.9375 42.8462" stroke="#CC0200" stroke-width="6"/>
<path d="M131.225 48.117C128.288 51.167 120.846 48.9103 114.881 43.161C108.916 37.4116 106.384 30.0555 109.321 27.0056" stroke="#CC0200" stroke-width="6"/>
<rect x="0.5" y="60.1412" width="79.2222" height="16.6718" rx="8.33589" fill="#D3AA9B" fill-opacity="0.13" stroke="#CC0200"/>
<rect x="110.29" y="80.9608" width="79.2222" height="15.9355" rx="7.96773" fill="#D3AA9B" fill-opacity="0.13" stroke="#CC0200"/>
</svg>
