<svg width="191" height="124" viewBox="0 0 191 124" fill="none" xmlns="http://www.w3.org/2000/svg">
<path d="M118.379 110.508C110.56 114.55 101.685 116.832 92.2772 116.832C60.8432 116.832 35.361 91.3501 35.361 59.9162C35.361 28.4822 60.8432 3 92.2772 3C123.711 3 149.193 28.4822 149.193 59.9162C149.193 73.7491 144.259 86.4295 136.053 96.2928L141.134 112.957L142.815 118.47L137.335 116.685L118.379 110.508Z" stroke="#F7B731" stroke-width="6"/>
<path d="M99.268 35.0032C99.268 40.674 104.009 45.4146 109.679 45.4146C115.35 45.4146 120.091 40.674 120.091 35.0032" stroke="#F7B731" stroke-width="6"/>
<path d="M60.5966 35.0032C60.5966 40.674 65.168 45.4146 70.6362 45.4146C76.1044 45.4146 80.6758 40.674 80.6758 35.0032" stroke="#F7B731" stroke-width="6"/>
<path d="M78.4448 77.5784C78.4448 71.9076 83.1854 67.167 88.8562 67.167C94.5269 67.167 99.2676 71.9076 99.2676 77.5784" stroke="#F7B731" stroke-width="6"/>
<rect x="0.5" y="-0.5" width="80.0602" height="16.8481" rx="8.42406" transform="matrix(1 0 0 -1 109.735 66.1484)" fill="#F7B731" fill-opacity="0.13" stroke="#F7B731"/>
<rect x="0.5" y="-0.5" width="80.0602" height="16.1044" rx="8.05222" transform="matrix(1 0 0 -1 0 97.3083)" fill="#F7B731" fill-opacity="0.13" stroke="#F7B731"/>
</svg>
