<svg width="181" height="117" viewBox="0 0 181 117" fill="none" xmlns="http://www.w3.org/2000/svg">
<path d="M67.7105 104.707C75.0889 108.509 83.4597 110.656 92.3318 110.656C122.06 110.656 146.16 86.5563 146.16 56.8279C146.16 27.0996 122.06 3 92.3318 3C62.6035 3 38.5039 27.0996 38.5039 56.8279C38.5039 69.877 43.1472 81.8415 50.8717 91.1595L46.109 106.781L44.4283 112.294L49.908 110.508L67.7105 104.707Z" stroke="#24A6F1" stroke-width="6"/>
<path d="M88.4758 43.157C88.4758 37.8111 84.0067 33.342 78.6608 33.342C73.3148 33.342 68.8457 37.8111 68.8457 43.157" stroke="#24A6F1" stroke-width="6"/>
<path d="M124.931 43.157C124.931 37.8111 120.622 33.342 115.467 33.342C110.312 33.342 106.002 37.8111 106.002 43.157" stroke="#24A6F1" stroke-width="6"/>
<path d="M108.106 64.1893C108.106 69.5352 103.637 74.0043 98.2906 74.0043C92.9447 74.0043 88.4756 69.5352 88.4756 64.1893" stroke="#24A6F1" stroke-width="6"/>
<rect x="0.5" y="57.5732" width="75.4172" height="15.8258" rx="7.9129" fill="#00E6AB" fill-opacity="0.13" stroke="#24A6F1"/>
<rect x="105.083" y="77.3962" width="75.4172" height="15.1247" rx="7.56236" fill="#00E6AB" fill-opacity="0.13" stroke="#24A6F1"/>
<path d="M38.5889 13.5558L41.8398 16.8066L49.2271 9.41932" stroke="#24A6F1" stroke-width="3" stroke-linecap="round" stroke-linejoin="round"/>
<path d="M147.837 30.2713L151.088 33.5221L158.476 26.1348" stroke="#24A6F1" stroke-width="3" stroke-linecap="round" stroke-linejoin="round"/>
</svg>
