<svg width="49" height="49" viewBox="0 0 49 49" fill="none" xmlns="http://www.w3.org/2000/svg">
<circle cx="24.5" cy="24.5" r="24" fill="white" stroke="#CC0200"/>
<g clip-path="url(#clip0_96_5154)">
<path d="M21.2012 23.8652C21.2173 23.8652 21.2334 23.8652 21.25 23.8652C21.2572 23.9155 21.2643 23.9658 21.2717 24.0176C21.3852 24.7584 21.5748 25.4549 22.0312 26.0625C22.0702 26.1157 22.0702 26.1157 22.11 26.1699C22.5238 26.6884 23.1429 26.9515 23.7891 27.0391C24.5215 27.0857 25.1809 26.9747 25.7483 26.4958C26.3217 25.9558 26.5117 25.2262 26.5509 24.4603C26.5541 24.4026 26.5541 24.4026 26.5573 24.3437C26.5624 24.2493 26.5674 24.1549 26.5723 24.0605C26.5239 24.0364 26.5239 24.0364 26.4746 24.0117C26.5229 23.9634 26.5713 23.915 26.6211 23.8652C26.6435 23.9016 26.6435 23.9016 26.6663 23.9387C27.0858 24.5614 27.8791 24.8289 28.559 25.0707C29.0014 25.2315 29.439 25.3996 29.8712 25.5864C29.9155 25.6054 29.9599 25.6243 30.0055 25.6438C31.0872 26.1186 31.5344 26.7735 31.9638 27.8381C31.9922 27.9668 31.9922 27.9668 31.9584 28.0704C31.8909 28.1673 31.8202 28.2567 31.7419 28.3452C31.7025 28.3902 31.7025 28.3902 31.6622 28.436C31.6322 28.4696 31.6322 28.4696 31.6016 28.5039C31.4022 28.4785 31.3178 28.3787 31.1835 28.2354C30.972 28.017 30.7508 27.8249 30.5134 27.6355C30.3844 27.5303 30.262 27.4205 30.1398 27.3076C29.876 27.068 29.5948 26.8576 29.3066 26.6484C29.2567 26.6114 29.2067 26.5744 29.1552 26.5363C28.4217 25.9978 27.6315 25.4446 26.8164 25.0371C26.8036 25.0786 26.7908 25.1201 26.7777 25.1629C26.7161 25.3375 26.6409 25.496 26.5572 25.661C26.5415 25.6922 26.5257 25.7234 26.5095 25.7555C26.4759 25.8222 26.4421 25.8889 26.4083 25.9556C26.3186 26.1324 26.2295 26.3097 26.1404 26.4869C26.1139 26.5398 26.1139 26.5398 26.0867 26.5937C25.9448 26.8767 25.8072 27.1617 25.672 27.448C25.4326 27.9541 25.1819 28.4544 24.9306 28.9546C24.6924 29.4292 24.4584 29.9053 24.2312 30.3853C23.9471 30.9837 23.6475 31.5745 23.3496 32.166C23.3798 32.1708 23.4101 32.1757 23.4412 32.1806C23.8414 32.2485 24.2316 32.3469 24.6222 32.4559C24.6561 32.4654 24.69 32.4748 24.7249 32.4845C26.1645 32.89 27.9779 33.5837 28.9557 34.7814C28.9933 34.8268 29.0308 34.8721 29.0696 34.9189C29.1535 35.0375 29.1802 35.1044 29.209 35.2422C28.1859 35.4542 27.162 35.6245 26.1254 35.7554C26.0144 35.7695 25.9034 35.784 25.7925 35.7992C24.2435 36.0113 22.6448 35.8992 21.1035 35.6816C21.0663 35.6764 21.0292 35.6712 20.9909 35.6659C19.2123 35.4152 17.4088 35.0811 15.7385 34.403C15.7008 34.3879 15.663 34.3728 15.6241 34.3573C15.3295 34.2311 15.2024 34.0897 15.0624 33.7966C14.9755 33.5437 14.9761 33.2948 14.9786 33.0297C14.979 32.9753 14.9793 32.9209 14.9797 32.8649C15.0155 30.8931 15.2472 27.8437 16.6449 26.3341C17.1323 25.8994 17.6865 25.6816 18.2927 25.4716C19.5965 25.0244 19.5965 25.0244 20.7709 24.3199C20.8594 24.2559 20.8594 24.2559 21.0059 24.207C21.06 24.1151 21.06 24.1151 21.1035 24.0117C21.1357 23.9634 21.168 23.915 21.2012 23.8652Z" fill="#CC0200"/>
<path d="M27.0013 14.2587C27.7261 14.8014 28.2001 15.4787 28.356 16.3818C28.4391 17.0425 28.395 17.7049 28.276 18.358C28.2358 18.5889 28.2271 18.7171 28.3301 18.9336C28.3947 19.5439 28.3204 20.2752 27.9496 20.7805C27.8677 20.928 27.8379 21.0835 27.8021 21.2468C27.5136 22.5253 26.6689 23.7643 25.5743 24.4878C24.8954 24.8974 24.1468 25.1485 23.3496 24.9883C22.1293 24.6359 21.2684 23.7282 20.6641 22.6445C20.4113 22.1803 20.2565 21.7218 20.1332 21.2084C20.0687 20.9473 19.99 20.7674 19.834 20.5449C19.6837 20.135 19.6207 19.7256 19.6173 19.2907C19.6168 19.2538 19.6163 19.217 19.6158 19.1791C19.6193 18.9577 19.6548 18.8194 19.7852 18.6406C19.8567 18.4976 19.8145 18.3986 19.7882 18.2408C19.7335 17.8595 19.7237 17.4779 19.7217 17.0931C19.7211 16.9948 19.7198 16.8966 19.7185 16.7983C19.7189 15.7955 20.1124 14.9982 20.8105 14.2949C22.5319 12.6348 25.1147 12.9301 27.0013 14.2587Z" fill="#CC0200"/>
<path d="M39.9023 23.8652C39.9346 23.8813 39.9668 23.8975 40 23.9141C39.9756 23.9301 39.9513 23.9462 39.9262 23.9627C39.804 24.0437 39.6823 24.1253 39.5605 24.207C39.4872 24.2557 39.4872 24.2557 39.4123 24.3055C38.7981 24.7204 38.2667 25.1991 37.7417 25.7207C37.6741 25.7876 37.6741 25.7876 37.6051 25.8559C37.3084 26.154 37.0386 26.4656 36.7773 26.7949C36.7278 26.8556 36.6783 26.9162 36.6286 26.9767C34.7084 29.3398 33.2126 32.0941 31.9865 34.8724C31.9717 34.9058 31.9568 34.9391 31.9415 34.9735C31.9011 35.0642 31.8611 35.155 31.8211 35.2458C31.7575 35.3701 31.7074 35.4468 31.6016 35.5352C31.3073 35.1954 31.0332 34.8454 30.7684 34.4823C29.5467 32.8108 27.8712 31.6966 25.8843 31.0838C25.803 31.0579 25.7235 31.0265 25.6445 30.9941C25.5874 30.8228 25.6014 30.8056 25.6779 30.651C25.6972 30.6114 25.7166 30.5718 25.7365 30.531C25.7581 30.488 25.7796 30.445 25.8019 30.4008C25.824 30.3558 25.8461 30.3109 25.8688 30.2647C25.9411 30.118 26.014 29.9716 26.087 29.8253C26.1365 29.7252 26.186 29.625 26.2355 29.5248C26.3574 29.278 26.48 29.0315 26.6028 28.7851C26.6641 28.6621 26.7253 28.539 26.7865 28.4159C26.9558 28.0756 27.1257 27.7355 27.2967 27.396C27.3484 27.2934 27.3998 27.1907 27.4512 27.0879C27.5995 27.1175 27.7001 27.1634 27.8231 27.2508C27.8731 27.2861 27.8731 27.2861 27.9241 27.3221C27.9594 27.3475 27.9946 27.373 28.031 27.3992C28.0677 27.4254 28.1044 27.4516 28.1422 27.4787C28.6238 27.8254 29.0913 28.1857 29.5275 28.5886C29.6261 28.6788 29.7261 28.7661 29.8273 28.8531C30.0706 29.0655 30.299 29.292 30.5273 29.5201C30.5897 29.5816 30.5897 29.5816 30.6532 29.6442C30.8945 29.8849 31.1156 30.1322 31.3237 30.4022C31.3955 30.4924 31.4693 30.573 31.5527 30.6523C31.5935 30.6051 31.6342 30.5579 31.6761 30.5093C32.1293 29.9847 32.5907 29.4688 33.0618 28.9603C33.16 28.8543 33.2576 28.7479 33.3548 28.641C33.82 28.1305 34.2954 27.6183 34.8238 27.1722C34.9282 27.0825 35.0291 26.9894 35.1299 26.8957C35.4 26.6451 35.6755 26.4044 35.9643 26.1754C36.0225 26.1292 36.0805 26.0827 36.1383 26.036C37.2787 25.1172 38.5063 24.3306 39.9023 23.8652Z" fill="#F7B731"/>
</g>
<defs>
<clipPath id="clip0_96_5154">
<rect width="25" height="25" fill="white" transform="translate(15 12)"/>
</clipPath>
</defs>
</svg>
