<svg width="49" height="49" viewBox="0 0 49 49" fill="none" xmlns="http://www.w3.org/2000/svg">
<circle cx="24.5" cy="24.5" r="24" fill="white" stroke="#CC0200"/>
<path fill-rule="evenodd" clip-rule="evenodd" d="M16.8332 22.0833C16.4059 22.0833 15.9962 22.2531 15.694 22.5552C15.3919 22.8574 15.2221 23.2672 15.2221 23.6944V25.3056C15.2221 25.7329 15.3919 26.1426 15.694 26.4448C15.9962 26.7469 16.4059 26.9167 16.8332 26.9167H18.4444C18.8716 26.9167 19.2814 26.7469 19.5836 26.4448C19.8857 26.1426 20.0555 25.7329 20.0555 25.3056V23.6944C20.0555 23.2672 19.8857 22.8574 19.5836 22.5552C19.2814 22.2531 18.8716 22.0833 18.4444 22.0833H16.8332ZM16.8332 23.6944V25.3056H18.4444V23.6944H16.8332ZM21.6666 23.6944C21.6666 23.2672 21.8363 22.8574 22.1385 22.5552C22.4406 22.2531 22.8504 22.0833 23.2777 22.0833H24.8888C25.3161 22.0833 25.7259 22.2531 26.028 22.5552C26.3302 22.8574 26.4999 23.2672 26.4999 23.6944V25.3056C26.4999 25.7329 26.3302 26.1426 26.028 26.4448C25.7259 26.7469 25.3161 26.9167 24.8888 26.9167H23.2777C22.8504 26.9167 22.4406 26.7469 22.1385 26.4448C21.8363 26.1426 21.6666 25.7329 21.6666 25.3056V23.6944ZM23.2777 23.6944H24.8888V25.3056H23.2777V23.6944ZM29.7221 22.0833C29.2948 22.0833 28.885 22.2531 28.5829 22.5552C28.2808 22.8574 28.111 23.2672 28.111 23.6944V25.3056C28.111 25.7329 28.2808 26.1426 28.5829 26.4448C28.885 26.7469 29.2948 26.9167 29.7221 26.9167H31.3332C31.7605 26.9167 32.1703 26.7469 32.4725 26.4448C32.7746 26.1426 32.9444 25.7329 32.9444 25.3056V23.6944C32.9444 23.2672 32.7746 22.8574 32.4725 22.5552C32.1703 22.2531 31.7605 22.0833 31.3332 22.0833H29.7221ZM29.7221 23.6944V25.3056H31.3332V23.6944H29.7221ZM15.2221 30.1389C15.2221 29.7116 15.3919 29.3018 15.694 28.9997C15.9962 28.6975 16.4059 28.5278 16.8332 28.5278H18.4444C18.8716 28.5278 19.2814 28.6975 19.5836 28.9997C19.8857 29.3018 20.0555 29.7116 20.0555 30.1389V31.75C20.0555 32.1773 19.8857 32.5871 19.5836 32.8892C19.2814 33.1914 18.8716 33.3611 18.4444 33.3611H16.8332C16.4059 33.3611 15.9962 33.1914 15.694 32.8892C15.3919 32.5871 15.2221 32.1773 15.2221 31.75V30.1389ZM18.4444 30.1389V31.75H16.8332V30.1389H18.4444ZM23.2777 28.5278C22.8504 28.5278 22.4406 28.6975 22.1385 28.9997C21.8363 29.3018 21.6666 29.7116 21.6666 30.1389V31.75C21.6666 32.1773 21.8363 32.5871 22.1385 32.8892C22.4406 33.1914 22.8504 33.3611 23.2777 33.3611H24.8888C25.3161 33.3611 25.7259 33.1914 26.028 32.8892C26.3302 32.5871 26.4999 32.1773 26.4999 31.75V30.1389C26.4999 29.7116 26.3302 29.3018 26.028 28.9997C25.7259 28.6975 25.3161 28.5278 24.8888 28.5278H23.2777ZM24.8888 30.1389H23.2777V31.75H24.8888V30.1389Z" fill="#F7B731"/>
<path d="M36.1666 31.3472C36.1666 31.1336 36.0817 30.9287 35.9306 30.7776C35.7796 30.6265 35.5747 30.5417 35.361 30.5417C35.1474 30.5417 34.9425 30.6265 34.7914 30.7776C34.6403 30.9287 34.5555 31.1336 34.5555 31.3472V33.6946L35.597 34.7362C35.749 34.8829 35.9525 34.9641 36.1637 34.9623C36.3749 34.9605 36.5769 34.8757 36.7263 34.7264C36.8756 34.577 36.9604 34.375 36.9622 34.1638C36.964 33.9526 36.8828 33.7491 36.7361 33.5971L36.1666 33.0276V31.3472Z" fill="#F7B731"/>
<path fill-rule="evenodd" clip-rule="evenodd" d="M16.8333 10.8056C16.8333 10.5919 16.9182 10.387 17.0693 10.2359C17.2203 10.0849 17.4252 10 17.6389 10C17.8525 10 18.0574 10.0849 18.2085 10.2359C18.3596 10.387 18.4444 10.5919 18.4444 10.8056V14.8333C18.4444 15.047 18.5293 15.2519 18.6804 15.4029C18.8315 15.554 19.0364 15.6389 19.25 15.6389C19.4636 15.6389 19.6685 15.554 19.8196 15.4029C19.9707 15.2519 20.0556 15.047 20.0556 14.8333V12.4167H28.1111V10.8056C28.1111 10.5919 28.196 10.387 28.3471 10.2359C28.4981 10.0849 28.703 10 28.9167 10C29.1303 10 29.3352 10.0849 29.4863 10.2359C29.6374 10.387 29.7222 10.5919 29.7222 10.8056V14.8333C29.7222 15.047 29.8071 15.2519 29.9582 15.4029C30.1092 15.554 30.3141 15.6389 30.5278 15.6389C30.7414 15.6389 30.9463 15.554 31.0974 15.4029C31.2485 15.2519 31.3333 15.047 31.3333 14.8333V12.4167H33.75C34.3909 12.4167 35.0056 12.6713 35.4588 13.1245C35.9121 13.5777 36.1667 14.1924 36.1667 14.8333V27.7786C37.5776 27.9825 38.859 28.7133 39.753 29.8238C40.647 30.9343 41.0872 32.3422 40.9851 33.7641C40.8831 35.1861 40.2462 36.5167 39.2028 37.4881C38.1594 38.4595 36.7867 38.9997 35.3611 39C34.4519 39.0007 33.5561 38.7813 32.7501 38.3605C31.9442 37.9396 31.2522 37.3299 30.7332 36.5833H14.4167C13.7757 36.5833 13.161 36.3287 12.7078 35.8755C12.2546 35.4223 12 34.8076 12 34.1667V14.8333C12 14.1924 12.2546 13.5777 12.7078 13.1245C13.161 12.6713 13.7757 12.4167 14.4167 12.4167H16.8333V10.8056ZM29.7222 33.3611C29.7219 32.0049 30.2103 30.694 31.098 29.6687C31.9858 28.6434 33.2133 27.9724 34.5556 27.7786V19.6667H13.6111V34.1667C13.6111 34.3803 13.696 34.5852 13.8471 34.7363C13.9981 34.8874 14.203 34.9722 14.4167 34.9722H29.9558C29.8004 34.4493 29.7218 33.9066 29.7222 33.3611ZM39.3889 33.3611C39.3889 34.4293 38.9645 35.4538 38.2092 36.2092C37.4538 36.9645 36.4293 37.3889 35.3611 37.3889C34.2929 37.3889 33.2684 36.9645 32.513 36.2092C31.7577 35.4538 31.3333 34.4293 31.3333 33.3611C31.3333 32.2929 31.7577 31.2684 32.513 30.513C33.2684 29.7577 34.2929 29.3333 35.3611 29.3333C36.4293 29.3333 37.4538 29.7577 38.2092 30.513C38.9645 31.2684 39.3889 32.2929 39.3889 33.3611Z" fill="#CC0200"/>
</svg>
