<svg width="49" height="49" viewBox="0 0 49 49" fill="none" xmlns="http://www.w3.org/2000/svg">
<circle cx="24.5" cy="24.5" r="24" fill="white" stroke="#CC0200"/>
<rect x="19" y="17" width="11" height="15" fill="#FFA500"/>
<path d="M32 15C32.2652 15 32.5196 15.1054 32.7071 15.2929C32.8946 15.4804 33 15.7348 33 16V34C33 34.2652 32.8946 34.5196 32.7071 34.7071C32.5196 34.8946 32.2652 35 32 35H18C17.7348 35 17.4804 34.8946 17.2929 34.7071C17.1054 34.5196 17 34.2652 17 34V32H15V30H17V28H15V26H17V24H15V22H17V20H15V18H17V16C17 15.7348 17.1054 15.4804 17.2929 15.2929C17.4804 15.1054 17.7348 15 18 15H32ZM26 21H24V24H21V26H23.999L24 29H26L25.999 26H29V24H26V21Z" fill="#CC0200"/>
</svg>
