<svg width="49" height="49" viewBox="0 0 49 49" fill="none" xmlns="http://www.w3.org/2000/svg">
<circle cx="24.5" cy="24.5" r="24" fill="white" stroke="#CC0200"/>
<g clip-path="url(#clip0_96_5157)">
<path d="M25.5 20H24V25L28.28 27.54L29 26.33L25.5 24.25V20ZM25 15C22.6131 15 20.3239 15.9482 18.636 17.636C16.9482 19.3239 16 21.6131 16 24H13L16.96 28.03L21 24H18C18 22.1435 18.7375 20.363 20.0503 19.0503C21.363 17.7375 23.1435 17 25 17C26.8565 17 28.637 17.7375 29.9497 19.0503C31.2625 20.363 32 22.1435 32 24C32 25.8565 31.2625 27.637 29.9497 28.9497C28.637 30.2625 26.8565 31 25 31C23.07 31 21.32 30.21 20.06 28.94L18.64 30.36C19.4716 31.2004 20.4623 31.8668 21.5543 32.32C22.6463 32.7733 23.8177 33.0045 25 33C27.3869 33 29.6761 32.0518 31.364 30.364C33.0518 28.6761 34 26.3869 34 24C34 21.6131 33.0518 19.3239 31.364 17.636C29.6761 15.9482 27.3869 15 25 15Z" fill="#CC0200"/>
<path d="M31.0939 25.6399C30.9854 25.4459 30.8271 25.2843 30.6354 25.1718C30.4436 25.0593 30.2253 25 30.0029 25C29.7806 25 29.5623 25.0593 29.3705 25.1718C29.1788 25.2843 29.0205 25.4459 28.9119 25.6399L24.1589 34.1419C24.0526 34.3321 23.9979 34.5467 24.0001 34.7646C24.0023 34.9824 24.0614 35.1959 24.1715 35.3839C24.2817 35.5719 24.4391 35.7278 24.6281 35.8362C24.817 35.9446 25.0311 36.0017 25.2489 36.0019H34.7529C34.9709 36.0019 35.1851 35.9449 35.3742 35.8366C35.5633 35.7282 35.7208 35.5723 35.8311 35.3843C35.9414 35.1963 36.0006 34.9828 36.0028 34.7648C36.0051 34.5469 35.9503 34.3321 35.8439 34.1419L31.0939 25.6399ZM30.7519 33.2519C30.7519 33.4508 30.6729 33.6416 30.5323 33.7822C30.3916 33.9229 30.2009 34.0019 30.0019 34.0019C29.803 34.0019 29.6123 33.9229 29.4716 33.7822C29.331 33.6416 29.2519 33.4508 29.2519 33.2519C29.2519 33.053 29.331 32.8622 29.4716 32.7216C29.6123 32.5809 29.803 32.5019 30.0019 32.5019C30.2009 32.5019 30.3916 32.5809 30.5323 32.7216C30.6729 32.8622 30.7519 33.053 30.7519 33.2519ZM29.5019 31.0019V28.5019C29.5019 28.3693 29.5546 28.2421 29.6484 28.1483C29.7422 28.0546 29.8693 28.0019 30.0019 28.0019C30.1346 28.0019 30.2617 28.0546 30.3555 28.1483C30.4493 28.2421 30.5019 28.3693 30.5019 28.5019V31.0019C30.5019 31.1345 30.4493 31.2617 30.3555 31.3555C30.2617 31.4492 30.1346 31.5019 30.0019 31.5019C29.8693 31.5019 29.7422 31.4492 29.6484 31.3555C29.5546 31.2617 29.5019 31.1345 29.5019 31.0019Z" fill="#FFA500"/>
</g>
<defs>
<clipPath id="clip0_96_5157">
<rect width="24" height="24" fill="white" transform="translate(12 12)"/>
</clipPath>
</defs>
</svg>
